Patient4_TMGait_0pt7_02_right_09_EMG.mot
version=1
nRows=33
nColumns=33
inDegrees=no
endheader
time	1LAddLong	2LGlutMax	3LGlutMed	4LIliopsoas	5LSemiMemb	6LBicFemLong	7LRecFem	8LVastMed	9LVastLat	10LGasMed	11LTibAnt	12lTibPost	13LPeroneusLong	14LSol	15LExtDigLong	16LFlexDigLong	17RAddLong	18RGlutMax	19RGlutMed	20RIliopsoas	21RSemiMemb	22RBicFemLong	23RRecFem	24RVastMed	25RVastLat	26RGasMed	27RTibAnt	28RTibPost	29RPeroneusLong	30RSol	31RExtDigLong	32RFlexDigLong
10.538	0.001221	0.10544	-0.046539	0.012054	0.022125	0.078278	0.11719	0.021667	0.03006	0.052948	-0.17761	0.066223	0.032043	0.031586	0.55603	0.001068	0.016479	-0.041199	0.048828	-0.050507	-0.075378	0.087738	-0.074005	-0.062714	0.000153	-0.001831	0.14755	0.000305	-0.097961	-0.06073	-0.001678	-0.019226
10.539	0.005951	0.11993	-0.059204	-0.028534	0.021973	0.098572	0.030212	0.010529	0.058594	0.067596	-0.069733	0.065613	0.042114	0.10925	0.61081	-0.002594	0.008087	-0.008087	0.2327	-0.014038	0.030365	0.065002	-0.17441	-0.058136	0.006714	-0.005951	-0.051575	-0.000153	-0.2095	-0.079956	-0.003204	-0.012665
10.54	0.016632	0.10391	-0.044403	-0.033264	0.029449	-0.025024	0.072327	0.015259	0.053864	0.072937	0.14877	0.056915	-0.003357	0.12589	-0.22888	0.007935	0.008392	-0.079193	0.11917	-0.018158	0.03006	0.085144	-0.069885	-0.037537	0.016174	-0.005188	-0.2475	-0.000763	-0.19363	-0.097198	-0.001373	-0.006256
10.541	0.011139	0.11765	-0.021973	0.005493	0.046234	-0.11719	0.069885	0.007629	-0.014648	0.075378	0.10925	0.048676	0.06424	0.10193	0.037842	0.001526	-0.001373	-0.038757	-0.15564	-0.033264	-0.068359	0.065308	-0.010376	-0.03891	0.002136	-0.001068	-0.24323	-0.000153	0.019531	-0.11337	-0.005035	-0.007935
10.542	0.014648	0.11337	-0.01709	0.053406	0.041809	-0.15366	0.15457	0.007477	-0.1004	0.069427	-0.014954	0.053711	0.093994	0.046082	0.24384	0.00473	0.032349	-0.06485	-0.42541	-0.073395	-0.072327	0.070953	0.04364	-0.029755	0.001831	0.003967	-0.20508	0.000153	0.25726	-0.13855	-0.003662	-0.001373
10.543	0.008392	0.13199	0.007477	0.012054	0.027771	-0.087433	0.2269	-0.014038	-0.099487	0.026855	0.17532	0.051117	-0.40146	-0.01709	-0.19898	-0.005646	0.041351	-0.029144	-0.10834	-0.10254	-0.10071	0.037689	0.036011	-0.033722	0.00824	0.003052	-0.10986	0.000153	0.21835	-0.11078	-0.00412	-0.000916
10.544	0.01236	0.14572	0.018616	-0.000763	0.023499	-0.097198	0.18204	-0.017242	-0.003662	-0.009766	0.15152	0.049896	-0.28854	0.064087	-0.3952	0.001831	0.069733	-0.040741	-0.093536	-0.046997	-0.11292	0.006561	0.054932	-0.068359	0.024109	0.001831	-0.055084	-0.007477	0.46875	-0.040741	-0.002289	-0.004578
10.545	0.034637	0.16113	0.050964	0.004578	0.013733	-0.09079	0.11505	-0.001068	-0.006256	-0.052795	0.14557	0.046692	0.003204	0.1561	-0.24033	-0.008087	0.054626	-0.10208	0.036774	-0.002289	-0.20233	0.038605	0.071564	-0.080719	0.00946	-0.000153	-0.012054	-0.005035	1.1465	-0.064697	-0.002136	0.007935
10.546	-0.005493	0.12558	-0.004578	0.023956	0.012817	-0.12177	0.068665	0.006561	0.049896	-0.093842	-0.12466	0.046234	0.097046	0.1387	-0.41931	0.007629	0.051575	-0.11627	-0.02594	0.021667	-0.32608	0.11124	0.010223	-0.088501	0.012665	-0.004272	0.054169	-0.001373	-0.086365	-0.11002	-0.002899	0.001068
10.547	0.027618	0.13397	0.036621	0.00351	0.00885	-0.014801	0.091095	-0.010834	0.14648	-0.081177	-0.020142	0.041046	-0.11887	0.15091	-0.18036	0.000763	0.02121	-0.1442	-0.16373	-0.028076	-0.23651	0.14603	0.045624	-0.043335	-0.005035	-0.002747	0.23956	-0.000763	-1.098	-0.027771	0.002441	-0.00473
10.548	0.001831	0.14099	0.002594	0.008545	0.011597	0.09964	0.16571	-0.013885	0.043182	-0.024414	0.026855	0.023346	-0.1297	0.093689	-0.13519	0.001373	-0.030975	-0.16083	-0.2475	0.009918	0.27847	0.2301	-0.001984	-0.025024	0.01358	-0.00351	0.22232	-0.001678	-1.2469	0.003662	-0.002441	-0.009918
10.549	0.058899	0.17487	-0.016785	0.024414	0.014191	0.080261	0.25711	-0.013885	-0.013885	0.019989	0.080566	0.021362	0.095062	0.041199	-0.3949	0.008698	-0.031128	-0.14847	-0.20889	0.011749	0.30304	0.16998	0.022583	-0.012054	0.014648	-0.009766	0.30319	-0.004883	-0.45944	-0.013885	0.001526	-0.010834
10.55	0.016327	0.15457	-0.011292	-0.009003	0.015106	0.031128	0.2507	-0.010834	-0.003052	0.010071	0.011902	0.021515	-0.041962	0.012054	-0.44434	-0.004883	-0.039215	-0.14404	-0.1857	0.015106	-0.001984	0.091095	0.006256	-0.072479	0.026398	-0.020447	0.47287	-0.00946	0.056152	0.12436	-0.002441	-0.00885
10.551	0.004272	0.14969	-0.030365	-0.016937	0.014496	0.013428	0.20462	0.005493	0.020599	-0.03891	-0.015564	0.022125	0.47119	-0.043793	-0.39719	-0.000305	-0.019531	-0.17288	-0.16968	-0.00351	-0.13565	0.058136	0.016632	-0.055237	0.032349	-0.010681	0.40482	-0.003815	0.51514	0.023956	-0.004578	-0.008392
10.552	0.004425	0.16342	-0.058594	0.002136	0.009766	0.005646	0.16815	-0.002899	0.097504	-0.063171	-0.002136	0.018311	0.24109	-0.023804	-0.068054	-0.001678	0.003967	-0.18906	-0.25162	-0.03006	-0.14648	0.059814	0.021973	-0.080414	0.017242	-0.000458	-0.33005	-0.001831	0.44952	-0.12405	-0.002899	-0.00351
10.553	0.00824	0.1387	-0.048828	0.010529	0.016632	0.016785	0.15625	-0.012817	0.073395	-0.01709	0.007782	0.018921	0.22156	-0.088501	0.013123	0.018005	-0.007477	-0.17181	-0.21515	-0.098419	0.16861	0.069275	0.040131	-0.068512	0.015259	-0.002899	-0.44678	-0.001678	0.33112	-0.11383	-0.000916	-0.000916
10.554	0.007324	0.14206	-0.025482	0.006561	0.009308	0.046692	0.18753	-0.00946	0.042572	-0.032959	0.00885	0.024261	0.51025	-0.001221	0.22934	-0.000763	-0.00824	-0.224	-0.16327	-0.2504	0.27741	0.031128	-0.012207	-0.049286	0.02533	-0.005798	-0.37811	0.000305	0.14587	-0.10757	-0.00061	-0.002441
10.555	-0.005341	0.14557	-0.021973	-0.009308	0.007019	0.022736	0.20615	-0.007935	0.003357	-0.031433	-0.20355	0.030365	0.46509	0.011292	0.31494	0.013275	0.004883	-0.13626	-0.19684	-0.17944	0.16724	-0.049438	0.018616	-0.077209	0.006714	-0.009308	-0.24216	-0.002594	0.11841	-0.055389	-0.000458	-0.003357
10.556	-0.001984	0.1561	-0.001068	0.021667	0.00946	0.00351	0.22659	-0.009003	-0.05249	-0.032654	-0.242	0.023956	0.075836	-0.001373	1.1319	0.003052	0.025024	-0.13153	-0.14313	-0.054321	0.091095	-0.058746	0.005188	-0.056915	-0.005951	-0.012512	-0.11231	-0.000458	0.14725	0.018311	-0.001526	-0.006561
10.557	-0.004425	0.10422	-0.050964	0.01236	0.010223	0.025787	0.24292	-0.002747	-0.012817	-0.020142	0.051422	0.030365	-0.48904	-0.011292	0.15045	-0.003815	0.036926	-0.1239	-0.098114	0.0737	0.029602	0.066681	0.00412	-0.037384	-0.019531	-0.014954	0.10376	-0.006409	0.12817	0.02594	-0.002441	-0.007172
10.558	-0.003967	0.11307	-0.084534	-0.052643	-0.004272	0.049286	0.23407	0.001373	0.029602	-0.001831	0.14435	0.029907	-0.75882	-0.10437	-0.021362	-0.009918	0.041504	-0.1619	-0.057068	0.15045	-0.0354	0.20371	0.033569	-0.12268	-0.025177	-0.020294	0.024261	-0.000763	0.12283	0.013428	0.000153	-0.011597
10.559	-0.001678	0.093536	-0.057831	-0.0177	-0.011139	0.037079	0.24841	0.009613	-0.026245	-0.00885	0.22812	0.023041	-0.35309	-0.083466	-0.36667	0.001068	0.072021	-0.13718	-0.21072	0.23071	-0.15289	0.061188	0.024719	-0.10696	-0.005646	-0.018463	0.083923	-0.005035	-0.04837	0.049896	-0.002441	0.001678
10.56	0.007172	0.11292	-0.093079	0.024719	0.007935	0.013428	0.17181	0.016174	-0.005493	-0.012512	0.3212	0.028229	0.057831	-0.12177	0.054779	-0.013123	0.058746	-0.10437	-0.1648	0.14603	-0.20813	0.040588	0.019073	-0.081329	0.001221	-0.021667	-0.064392	-0.002594	-0.058594	0.064392	-0.003052	0.007782
10.561	0.007172	0.09903	-0.061646	0.010071	0.011444	-0.003967	0.17639	0.011292	-0.029297	-0.011749	0.25803	0.025177	-0.090942	-0.31387	-0.016785	0.000763	-0.022278	-0.082855	-0.12955	0.021515	0.001526	0.090637	0	0.00885	0.006561	-0.020447	-0.13763	0.002594	0.43701	0.040436	-0.003052	0.014191
10.562	0.01297	0.088043	-0.008392	0.00946	0.00473	-0.006866	0.22339	0.006256	-0.047302	-0.027161	0.021362	0.020599	-0.090179	-0.19821	0.21515	0.013123	-0.053406	-0.103	-0.061188	-0.032959	0.23499	0.13809	-0.011902	0.0177	0.012054	-0.022583	-0.18753	-0.001984	0.28412	0.041046	-0.003662	-0.002289
10.563	0.00946	0.11902	-0.028534	-0.003357	0.018005	-0.002747	0.26581	-0.008392	0.001221	0.006256	-0.22293	0.025635	-0.12451	-0.11993	-0.19821	0.016632	-0.023041	-0.11093	0.19165	-0.05188	0.24262	0.084381	0.020905	0.018463	0.002899	-0.017548	0.020142	0.000305	-0.014191	-0.014648	-0.00351	0.001984
10.564	0.009003	0.1265	-0.049896	0.012817	0.029297	-0.006104	0.28946	-0.012665	0.008392	0.00946	0.090179	0.019989	-0.17212	-0.029907	0.40024	0.004578	0.041656	-0.14175	0.17425	0.036926	0.062866	-0.11154	0.037079	-0.094452	-0.015411	-0.021667	0.014191	0.001984	-0.16754	-0.010834	-0.003815	0.000458
10.565	-0.00061	0.1593	-0.081482	0.00412	0.028381	-0.010681	0.30182	-0.001678	-0.082245	0.014648	0.22415	0.02243	-0.10788	0.008087	0.3035	0.005798	0.10651	-0.1442	-0.040283	0.061951	0.095367	-0.22766	0.063629	-0.15915	-0.018616	-0.018311	-0.035248	-0.000916	-0.18509	-0.030975	-0.009766	-0.000153
10.566	0.002594	0.17777	-0.051117	-0.010376	0.02121	0.000305	0.31174	0.00824	-0.1445	-0.007935	0.010376	0.027924	-0.038452	0.10635	0.022888	0.001373	0.1471	-0.12787	-0.103	-0.001678	0.056305	-0.26825	0.060425	-0.21164	-0.011444	-0.021667	-0.0737	-0.001068	-0.037842	-0.023041	-0.004272	0.003357
10.567	0.007782	0.18494	-0.005646	0.016022	0.014801	0.023804	0.35385	0.00061	-0.15533	-0.020142	-0.23071	0.023804	-0.15045	0.16907	0.093384	-0.010986	0.098114	-0.11688	-0.05722	0.022278	-0.34424	-0.053864	-0.037994	-0.0914	0.019531	-0.023193	-0.087891	-0.001068	0.017548	-0.044098	-0.00412	0.007629
10.568	0.003357	0.20447	-0.046997	-0.013123	0.010071	0.024414	0.27695	-0.001678	-0.068665	-0.015564	-0.45685	0.019073	-0.40497	0.002289	-0.075989	-0.028992	-0.050964	-0.16632	-0.16434	0.035553	-0.33203	0.14587	-0.11719	0.042114	0.056763	-0.026093	-0.029602	0.001526	0.042267	-0.042725	-0.003052	-0.004272
10.569	0.005951	0.18997	-0.032349	0.005493	0.008545	0.040283	0.18768	-0.001373	0.10346	-0.024872	-0.33691	0.024872	-0.17853	-0.10147	-0.77393	-0.025177	-0.12085	-0.1619	-0.24002	0.030823	-0.07309	0.32745	-0.043335	0.12116	0.034943	-0.029297	0.11414	-0.004883	0.012512	-0.059814	-0.002747	0.001068
10.57	0.006714	0.23163	-0.066833	0.016937	0.010223	0.008087	0.21774	-0.011902	0.24918	-0.041504	-0.14969	0.025482	0.20935	-0.073395	-0.35309	0.001831	-0.11078	-0.093536	-0.2211	0.011139	0.12817	0.32394	-0.035858	0.032196	0.013275	-0.030823	0.2327	-0.00061	-0.015869	-0.063171	-0.000916	0.002136
